<svg width="65" height="65" viewBox="0 0 65 65" fill="none" xmlns="http://www.w3.org/2000/svg">
<line x1="22" y1="44.5" x2="42" y2="44.5" stroke="black"/>
<path d="M31.2929 41.7071C31.6834 42.0976 32.3166 42.0976 32.7071 41.7071L39.0711 35.3431C39.4616 34.9526 39.4616 34.3195 39.0711 33.9289C38.6805 33.5384 38.0474 33.5384 37.6569 33.9289L32 39.5858L26.3431 33.9289C25.9526 33.5384 25.3195 33.5384 24.9289 33.9289C24.5384 34.3195 24.5384 34.9526 24.9289 35.3431L31.2929 41.7071ZM32 21L31 21L31 41L32 41L33 41L33 21L32 21Z" fill="#071013"/>
</svg>
