<?xml version="1.0" encoding="UTF-8"?>
<svg id="Calque_1" xmlns="http://www.w3.org/2000/svg" version="1.1" viewBox="0 0 244.06 213.29">
  <!-- Generator: Adobe Illustrator 29.2.0, SVG Export Plug-In . SVG Version: 2.1.0 Build 108)  -->
  <g>
    <path d="M223.4-190.11c-.51-2.82.22-5.7,2.01-7.9,12.37-15.21,18.64-36.75,18.64-64.02,0-32.45-8.64-54.48-27.18-69.31-19.33-15.46-50.35-22.97-94.85-22.97s-75.52,7.52-94.85,22.97C8.63-316.5,0-294.47,0-262.02s8.63,54.48,27.18,69.31c19.33,15.46,50.35,22.98,94.85,22.98h29.74c8.06,0,15.68-.55,22.68-1.62,3.61-.56,7.19.92,9.34,3.85,5.9,8.07,19.36,22.23,43.13,26.34.55.1,1.1.14,1.65.14,3.06,0,5.93-1.48,7.73-4.06,2.14-3.07,2.32-6.99.45-10.23-4.71-8.19-10.85-20.88-13.35-34.8ZM231.25-148.61c-.76,1.09-1.99,1.61-3.29,1.38-20.55-3.55-32.66-14.96-39.2-23.91-3.02-4.13-7.77-6.49-12.79-6.49-.81,0-1.63.06-2.45.19-6.69,1.03-14.01,1.55-21.75,1.55h-29.74c-43.04,0-72.81-7.08-91-21.63-16.97-13.57-24.87-34.06-24.87-64.51s7.9-50.93,24.87-64.51c18.19-14.55,47.96-21.62,91-21.62s72.82,7.07,91.01,21.62c16.97,13.57,24.87,34.07,24.87,64.51,0,25.82-5.81,46.05-17.26,60.14-2.92,3.59-4.13,8.28-3.3,12.87,2.67,14.78,9.13,28.16,14.08,36.77.67,1.17.61,2.53-.17,3.63Z"/>
    <path d="M171.1-312.02c0,.47-.11.95-.35,1.39-.75,1.39-2.48,1.92-3.89,1.21-23.51-11.8-46.78-11.08-62.39-8.3-13,2.32-22.95,6.4-27.33,8.42-1.4.64-3.06.09-3.79-1.27h0c-.8-1.49-.19-3.34,1.34-4.05,4.68-2.17,14.93-6.37,28.55-8.82,16.55-2.99,41.24-3.78,66.26,8.79,1.02.51,1.61,1.55,1.61,2.62Z"/>
    <path d="M153.27-209.74c-5.18,1.51-17.33,4.5-32.36,4.5-9.29,0-19.67-1.14-30.19-4.47-1.43-.45-2.21-2-1.71-3.42l.17-.5c.48-1.35,1.94-2.08,3.31-1.65,25.77,8.13,51.35,2.13,59.13-.08,1.35-.39,2.76.35,3.23,1.68l.18.51c.5,1.43-.3,3-1.76,3.43Z"/>
    <path d="M196.52-266.78h-53.29c-2.9,0-5.43,1.57-6.81,3.91-.32.55-.89.9-1.53.9h-25.74c-.64,0-1.21-.36-1.53-.9-1.38-2.34-3.91-3.91-6.81-3.91h-53.29c-5.34,0-9.66,4.32-9.66,9.66v2.77c0,5.34,4.32,9.66,9.66,9.66h51.51c5.34,0,9.66-4.32,9.66-9.66,0-.49.2-.93.52-1.25.32-.32.76-.52,1.25-.52h23.1c.98,0,1.77.79,1.77,1.77,0,2.67,1.08,5.09,2.83,6.83,1.74,1.75,4.16,2.83,6.83,2.83h51.51c5.34,0,9.66-4.32,9.66-9.66v-2.77c0-5.34-4.32-9.66-9.66-9.66ZM102.86-254.34c0,2.1-1.71,3.81-3.81,3.81h-51.51c-2.1,0-3.81-1.71-3.81-3.81v-2.77c0-2.1,1.71-3.81,3.81-3.81h51.51c2.1,0,3.81,1.71,3.81,3.81v2.77ZM200.33-254.34c0,2.1-1.71,3.81-3.81,3.81h-51.51c-2.1,0-3.81-1.71-3.81-3.81v-2.77c0-2.1,1.71-3.81,3.81-3.81h51.51c2.09,0,3.81,1.71,3.81,3.81v2.77Z"/>
    <path d="M91.32-280.1c0,1.62-1.31,2.93-2.92,2.93h-30.21c-.81,0-1.54-.33-2.07-.86-.53-.53-.86-1.26-.86-2.07,0-1.61,1.31-2.92,2.92-2.92h30.21c.81,0,1.54.33,2.07.86.53.53.86,1.26.86,2.07Z"/>
    <path d="M188.79-280.1c0,1.62-1.31,2.93-2.92,2.93h-30.21c-.81,0-1.54-.33-2.07-.86s-.86-1.26-.86-2.07c0-1.61,1.31-2.92,2.92-2.92h30.21c.81,0,1.54.33,2.07.86.53.53.86,1.26.86,2.07Z"/>
    <path d="M182.89-209.39l-.28.44c-.89,1.38-2.79,1.63-4.01.54-3.54-3.16-9.76-10.31-10.65-22.03-.12-1.54,1.11-2.86,2.65-2.86h.53c1.4,0,2.54,1.09,2.65,2.48.76,9.69,5.86,15.51,8.63,18,.98.87,1.18,2.33.47,3.43Z"/>
    <path d="M76.1-230.44c-.89,11.72-7.1,18.86-10.64,22.03-.51.46-1.15.68-1.77.68-.87,0-1.73-.42-2.24-1.23l-.28-.43c-.72-1.1-.51-2.56.47-3.44,2.77-2.49,7.87-8.31,8.63-18,.11-1.39,1.25-2.48,2.65-2.48h.53c1.55,0,2.77,1.32,2.65,2.86Z"/>
  </g>
  <g>
    <path d="M223.4,164.2c-.51-2.82.22-5.7,2.01-7.9,12.37-15.21,18.64-36.75,18.64-64.02,0-32.45-8.64-54.48-27.18-69.31C197.55,7.52,166.53,0,122.03,0S46.5,7.52,27.18,22.97C8.63,37.81,0,59.83,0,92.29s8.63,54.48,27.18,69.31c19.33,15.46,50.35,22.98,94.85,22.98h29.74c8.06,0,15.68-.55,22.68-1.62,3.61-.56,7.19.92,9.34,3.85,5.9,8.07,19.36,22.23,43.13,26.34.55.1,1.1.14,1.65.14,3.06,0,5.93-1.48,7.73-4.06,2.14-3.07,2.32-6.99.45-10.23-4.71-8.19-10.85-20.88-13.35-34.8ZM231.25,205.7c-.76,1.09-1.99,1.61-3.29,1.38-20.55-3.55-32.66-14.96-39.2-23.91-3.02-4.13-7.77-6.49-12.79-6.49-.81,0-1.63.06-2.45.19-6.69,1.03-14.01,1.55-21.75,1.55h-29.74c-43.04,0-72.81-7.08-91-21.63-16.97-13.57-24.87-34.06-24.87-64.51S14.06,41.35,31.02,27.78C49.21,13.23,78.98,6.16,122.03,6.16s72.82,7.07,91.01,21.62c16.97,13.57,24.87,34.07,24.87,64.51,0,25.82-5.81,46.05-17.26,60.14-2.92,3.59-4.13,8.28-3.3,12.87,2.67,14.78,9.13,28.16,14.08,36.77.67,1.17.61,2.53-.17,3.63Z"/>
    <path d="M171.1,42.28c0,.47-.11.95-.35,1.39-.75,1.39-2.48,1.92-3.89,1.21-23.51-11.8-46.78-11.08-62.39-8.3-13,2.32-22.95,6.4-27.33,8.42-1.4.64-3.06.09-3.79-1.27h0c-.8-1.49-.19-3.34,1.34-4.05,4.68-2.17,14.93-6.37,28.55-8.82,16.55-2.99,41.24-3.78,66.26,8.79,1.02.51,1.61,1.55,1.61,2.62Z"/>
    <path d="M153.27,144.57c-5.18,1.51-17.33,4.5-32.36,4.5-9.29,0-19.67-1.14-30.19-4.47-1.43-.45-2.21-2-1.71-3.42l.17-.5c.48-1.35,1.94-2.08,3.31-1.65,25.77,8.13,51.35,2.13,59.13-.08,1.35-.39,2.76.35,3.23,1.68l.18.51c.5,1.43-.3,3-1.76,3.43Z"/>
    <path d="M196.52,87.53h-53.29c-2.9,0-5.43,1.57-6.81,3.91-.32.55-.89.9-1.53.9h-25.74c-.64,0-1.21-.36-1.53-.9-1.38-2.34-3.91-3.91-6.81-3.91h-53.29c-5.34,0-9.66,4.32-9.66,9.66v2.77c0,5.34,4.32,9.66,9.66,9.66h51.51c5.34,0,9.66-4.32,9.66-9.66,0-.49.2-.93.52-1.25.32-.32.76-.52,1.25-.52h23.1c.98,0,1.77.79,1.77,1.77,0,2.67,1.08,5.09,2.83,6.83,1.74,1.75,4.16,2.83,6.83,2.83h51.51c5.34,0,9.66-4.32,9.66-9.66v-2.77c0-5.34-4.32-9.66-9.66-9.66ZM102.86,99.96c0,2.1-1.71,3.81-3.81,3.81h-51.51c-2.1,0-3.81-1.71-3.81-3.81v-2.77c0-2.1,1.71-3.81,3.81-3.81h51.51c2.1,0,3.81,1.71,3.81,3.81v2.77ZM200.33,99.96c0,2.1-1.71,3.81-3.81,3.81h-51.51c-2.1,0-3.81-1.71-3.81-3.81v-2.77c0-2.1,1.71-3.81,3.81-3.81h51.51c2.09,0,3.81,1.71,3.81,3.81v2.77Z"/>
    <path d="M91.32,74.21c0,1.62-1.31,2.93-2.92,2.93h-30.21c-.81,0-1.54-.33-2.07-.86-.53-.53-.86-1.26-.86-2.07,0-1.61,1.31-2.92,2.92-2.92h30.21c.81,0,1.54.33,2.07.86.53.53.86,1.26.86,2.07Z"/>
    <path d="M188.79,74.21c0,1.62-1.31,2.93-2.92,2.93h-30.21c-.81,0-1.54-.33-2.07-.86s-.86-1.26-.86-2.07c0-1.61,1.31-2.92,2.92-2.92h30.21c.81,0,1.54.33,2.07.86.53.53.86,1.26.86,2.07Z"/>
    <path d="M182.89,144.91l-.28.44c-.89,1.38-2.79,1.63-4.01.54-3.54-3.16-9.76-10.31-10.65-22.03-.12-1.54,1.11-2.86,2.65-2.86h.53c1.4,0,2.54,1.09,2.65,2.48.76,9.69,5.86,15.51,8.63,18,.98.87,1.18,2.33.47,3.43Z"/>
    <path d="M76.1,123.86c-.89,11.72-7.1,18.86-10.64,22.03-.51.46-1.15.68-1.77.68-.87,0-1.73-.42-2.24-1.23l-.28-.43c-.72-1.1-.51-2.56.47-3.44,2.77-2.49,7.87-8.31,8.63-18,.11-1.39,1.25-2.48,2.65-2.48h.53c1.55,0,2.77,1.32,2.65,2.86Z"/>
  </g>
  <g>
    <path d="M298.44-223.04h19.54c1.45,16.65,16.65,25.81,35.95,25.81,18.09,0,26.78-7,26.78-19.78,0-12.06-9.41-14.72-22.68-19.3l-18.58-6.27c-18.82-6.27-37.63-12.06-37.63-35.22,0-21.71,16.89-35.7,44.87-35.7s47.77,15.2,50.9,43.67h-19.54c-2.17-17.85-14.72-26.54-32.09-26.54-15.68,0-24.85,7-24.85,18.09,0,13.27,13.99,15.92,24.61,19.54l17.37,5.79c23.4,7.72,37.39,15.68,37.39,36.91,0,22.44-16.41,35.95-47.53,35.95s-52.83-15.92-54.52-42.94Z"/>
    <path d="M418.58-246.2c0-43.67,28.23-67.31,60.55-67.31,35.22,0,57.9,23.64,58.62,64.65v5.55h-99.15c1.21,27.26,17.13,45.84,42.94,45.84,17.85,0,30.88-8.93,36.19-25.57h19.54c-5.79,26.3-26.54,42.94-55.73,42.94-37.88,0-62.97-27.74-62.97-66.1ZM516.77-259.95c-3.62-22.44-17.13-36.19-37.63-36.19s-35.22,13.27-39.32,36.19h76.96Z"/>
    <path d="M564.06-182.75v-127.86h15.92l1.93,19.54c8.68-13.51,25.33-22.44,44.39-22.44,27.5,0,45.84,17.85,45.84,46.08v84.68h-20.02v-83.95c0-17.85-11.58-29.19-30.88-29.19-22.92,0-36.91,15.92-37.15,35.46v77.68h-20.02Z"/>
    <path d="M698.68-343.9c0-8.44,6.51-14.96,15.2-14.96s15.2,6.51,15.2,14.96-6.51,15.2-15.2,15.2-15.2-6.51-15.2-15.2ZM703.5-182.75l.24-127.86h20.02l-.24,127.86h-20.02Z"/>
    <path d="M750.06-247.89c0-42.7,27.98-65.62,62.72-65.62,40.77,0,62.72,29.43,62.72,65.62,0,44.15-26.78,67.79-62.72,67.79-41.01,0-62.72-29.19-62.72-67.79ZM855-247.89c0-28.71-16.65-48.25-42.22-48.25s-42.22,19.54-42.22,48.25c0,32.81,19.06,50.42,42.22,50.42,27.26,0,42.22-22.68,42.22-50.42Z"/>
    <path d="M901.81-182.75v-127.86h15.92l2.41,24.37c8.2-16.4,23.16-25.09,44.39-25.09h4.34v19.78h-4.34c-27.02,0-42.7,15.44-42.7,41.74v67.07h-20.02Z"/>
    <path d="M979.49-247.4c0-42.94,28.23-66.1,62.97-66.1,32.09,0,55,19.3,58.62,52.11h-19.54c-3.38-21.23-18.09-34.74-39.56-34.74-25.33,0-42.22,18.58-42.22,48.73,0,32.57,19.78,49.94,43.67,49.94,20.51,0,34.5-13.03,38.12-35.22h19.54c-3.62,33.05-24.85,52.59-57.9,52.59-41.49,0-63.69-30.4-63.69-67.31Z"/>
    <path d="M1128.1-182.75v-180.94h20.02v69.48c9.17-11.58,24.85-19.3,42.22-19.3,27.5,0,45.84,17.85,45.84,46.08v84.68h-20.02v-83.95c0-17.85-11.58-29.19-29.67-29.19-24.12,0-38.12,15.92-38.36,35.46v77.68h-20.02Z"/>
    <path d="M1261.03-247.4c0-39.08,23.64-66.1,57.9-66.1,20.51,0,37.63,9.65,46.56,24.85l1.93-21.95h15.92v127.86h-19.78v-21.23c-8.93,14.72-24.85,23.88-44.39,23.88-34.26,0-58.14-27.5-58.14-67.31ZM1363.56-247.89c0-28.71-16.4-48.49-40.05-48.49s-41.74,20.02-41.74,48.97,16.65,49.94,40.53,49.94,41.25-20.75,41.25-50.42Z"/>
    <path d="M1468.5-182.75c-24.85,0-38.12-12.79-38.12-36.43v-74.55h-23.64v-16.89h23.64v-43.67h20.02v43.67h34.5v16.89h-34.5v74.55c0,12.79,6.27,19.54,18.09,19.54h14.23v16.89h-14.23Z"/>
  </g>
</svg>